    <svg id="cartoGroupLogo" version="1.0" xmlns="http://www.w3.org/2000/svg" xmlns:xlink="http://www.w3.org/1999/xlink" x="0px" y="0px" width="65px" height="65px" viewBox="0 0 72 72" style="enable-background:new 0 0 72 72;" xml:space="preserve">
        <g>
            <defs>
                <rect id="SVGID_1_" y="0" width="72" height="72"></rect>
            </defs>
            <clipPath id="SVGID_2_">
                <use xlink:href="#SVGID_1_" style="overflow:visible;"></use>
            </clipPath>
            <circle id="logoBackground" cx="36" cy="36" r="36" fill="#444" opacity="0.75"></circle>
            <path style="clip-path:url(#SVGID_2_);fill:#BCBEC0;" d="M24.385,9.992c1.604-0.146,3.02,1.035,3.166,2.638
                    c0.148,1.6-1.031,3.018-2.633,3.166c-1.601,0.147-3.021-1.034-3.17-2.636C21.602,11.559,22.781,10.14,24.385,9.992"></path>
            <path style="clip-path:url(#SVGID_2_);fill:none;stroke:#BCBEC0;stroke-width:0.254;stroke-miterlimit:10;" d="M24.385,9.992
                    c1.604-0.146,3.02,1.035,3.166,2.638c0.148,1.6-1.031,3.018-2.633,3.166c-1.601,0.147-3.021-1.034-3.17-2.636
                    C21.602,11.559,22.781,10.14,24.385,9.992z"></path>
            <path style="clip-path:url(#SVGID_2_);fill:#F37321;" d="M14.486,18.758c2.047-0.188,3.852,1.313,4.041,3.361
                    c0.186,2.044-1.316,3.851-3.361,4.04c-2.043,0.188-3.85-1.317-4.037-3.361C10.939,20.753,12.443,18.947,14.486,18.758"></path>
            <path style="clip-path:url(#SVGID_2_);fill:none;stroke:#F37321;stroke-width:0.254;stroke-miterlimit:10;" d="M14.486,18.758
                    c2.047-0.188,3.852,1.313,4.041,3.361c0.186,2.044-1.316,3.851-3.361,4.04c-2.043,0.188-3.85-1.317-4.037-3.361
                    C10.939,20.753,12.443,18.947,14.486,18.758z"></path>
            <path style="clip-path:url(#SVGID_2_);fill:#BCBEC0;" d="M9.715,33.422c1.434-0.132,2.697,0.92,2.83,2.352
                    c0.129,1.429-0.92,2.696-2.355,2.826c-1.428,0.132-2.696-0.919-2.829-2.351C7.233,34.817,8.285,33.553,9.715,33.422"></path>
            <path style="clip-path:url(#SVGID_2_);fill:none;stroke:#BCBEC0;stroke-width:0.254;stroke-miterlimit:10;" d="M9.715,33.422
                    c1.434-0.132,2.697,0.92,2.83,2.352c0.129,1.429-0.92,2.696-2.355,2.826c-1.428,0.132-2.696-0.919-2.829-2.351
                    C7.233,34.817,8.285,33.553,9.715,33.422z"></path>
            <path style="clip-path:url(#SVGID_2_);fill:#BCBEC0;" d="M12.117,46.602c0.912-0.137,1.764,0.49,1.898,1.4
                    c0.137,0.917-0.492,1.768-1.404,1.903c-0.912,0.135-1.762-0.492-1.898-1.407C10.576,47.589,11.205,46.738,12.117,46.602"></path>
            <path style="clip-path:url(#SVGID_2_);fill:none;stroke:#BCBEC0;stroke-width:0.325;stroke-miterlimit:10;" d="M12.117,46.602
                    c0.912-0.137,1.764,0.49,1.898,1.4c0.137,0.917-0.492,1.768-1.404,1.903c-0.912,0.135-1.762-0.492-1.898-1.407
                    C10.576,47.589,11.205,46.738,12.117,46.602z"></path>
            <path style="clip-path:url(#SVGID_2_);fill:#BCBEC0;" d="M35.815,7.867c0.912-0.137,1.762,0.492,1.896,1.406
                    c0.14,0.91-0.491,1.762-1.399,1.897c-0.914,0.136-1.764-0.492-1.9-1.405C34.274,8.854,34.903,8.004,35.815,7.867"></path>
            <path style="clip-path:url(#SVGID_2_);fill:none;stroke:#BCBEC0;stroke-width:0.325;stroke-miterlimit:10;" d="M35.815,7.867
                    c0.912-0.137,1.762,0.492,1.896,1.406c0.14,0.91-0.491,1.762-1.399,1.897c-0.914,0.136-1.764-0.492-1.9-1.405
                    C34.274,8.854,34.903,8.004,35.815,7.867z"></path>
        </g>
        <g style="fill:white;">
            <path d="M27.273,38.444c-0.576,0.24-1.312,0.352-2.129,0.352c-3.265,0-4.833-2.369-4.833-5.506
                    c0-3.425,2.145-5.506,4.786-5.506c0.944,0,1.729,0.208,2.129,0.4l-0.096,1.681c-0.4-0.32-1.168-0.512-1.873-0.512
                    c-1.953,0-2.929,1.792-2.929,3.954c0,2.129,1.041,3.906,2.913,3.906c0.849,0,1.312-0.129,1.937-0.433L27.273,38.444z"></path>
            <path d="M29.366,38.62l3.377-10.676h2.208l3.361,10.676h-2.032l-0.721-2.609h-3.505l-0.72,2.609H29.366z
                    M32.391,34.586h2.801l-1.409-4.978L32.391,34.586z"></path>
            <path d="M41.271,38.62V27.943h3.394c1.712,0,3.121,0.96,3.121,2.753c0,1.393-0.753,2.337-2.113,2.593
                    c0.704,0.176,0.992,0.544,1.297,1.424l1.328,3.906h-2.081l-1.024-3.329c-0.256-0.816-0.527-1.201-1.185-1.201h-0.8v4.53H41.271z
                    M43.191,32.585h0.944c1.088,0,1.648-0.592,1.648-1.616c0-1.073-0.656-1.537-1.681-1.537h-0.912V32.585z"></path>
            <path d="M52.807,38.62v-9.092h-2.321v-1.584h6.595v1.584h-2.321v9.092H52.807z"></path>
            <path d="M59.271,33.29c0-2.625,1.104-5.506,4.13-5.506c3.249,0,4.161,2.865,4.161,5.506
                    c0,2.673-1.104,5.506-4.161,5.506c-0.801,0-1.473-0.16-2.001-0.479C59.83,37.323,59.271,35.354,59.271,33.29z M63.4,37.323
                    c1.904,0,2.128-2.4,2.128-4.033c0-1.681-0.208-4.034-2.128-4.034c-1.841,0-2.113,2.385-2.113,4.034c0,0.944,0.08,1.953,0.384,2.721
                    C61.991,36.779,62.52,37.323,63.4,37.323z"></path>
        </g>
        <g style="fill:#BCBEC0;">
            <path d="M26.7,52.683c-0.714,0.378-1.597,0.519-2.381,0.519c-2.843,0-4.076-2.241-4.076-4.818
                    c0-2.521,1.471-4.819,4.188-4.819c0.784,0,1.471,0.183,2.073,0.448l-0.084,1.205c-0.546-0.351-1.247-0.574-1.975-0.574
                    c-2.003,0-2.858,1.919-2.858,3.74c0,1.835,0.771,3.739,2.844,3.739c0.378,0,0.714-0.069,1.051-0.252v-2.899h-1.457v-1.022H26.7
                    V52.683z"></path>
            <path d="M30.042,53.047v-9.343h2.591c1.485,0,2.591,0.882,2.591,2.409c0,1.219-0.645,2.045-1.835,2.27
                    c0.574,0.111,0.827,0.42,1.051,1.05l1.289,3.614h-1.387l-1.022-3.054c-0.224-0.672-0.448-1.093-1.107-1.093h-0.882v4.146H30.042z
                    M31.317,47.85h0.98c1.065,0,1.597-0.574,1.597-1.597c0-1.05-0.63-1.499-1.639-1.499h-0.938V47.85z"></path>
            <path d="M38.162,48.383c0-2.199,0.854-4.819,3.432-4.819c2.76,0,3.46,2.592,3.46,4.819
                    c0,2.227-0.826,4.818-3.46,4.818c-0.686,0-1.246-0.141-1.694-0.435C38.582,51.899,38.162,50.106,38.162,48.383z M41.594,52.151
                    c1.85,0,2.102-2.27,2.102-3.768c0-1.541-0.21-3.769-2.102-3.769c-1.807,0-2.087,2.27-2.087,3.769c0,0.826,0.084,1.765,0.364,2.507
                    C40.165,51.619,40.697,52.151,41.594,52.151z"></path>
            <path d="M49.461,49.784c0,1.162,0.168,2.354,1.625,2.354c1.4,0,1.639-1.191,1.639-2.354v-6.079h1.303v5.953
                    c0,1.947-0.771,3.544-2.941,3.544c-2.241,0-2.928-1.527-2.928-3.544v-5.953h1.303V49.784z"></path>
            <path d="M57.566,53.047v-9.343h2.185c1.779,0,2.984,0.882,2.984,2.745c0,1.751-1.093,2.76-2.815,2.76h-1.065
                    v3.838H57.566z M58.841,48.159h0.812c1.177,0,1.751-0.532,1.751-1.709c0-1.232-0.715-1.695-1.905-1.695h-0.658V48.159z"></path>
        </g>
    </svg>
