<?xml version="1.0" encoding="utf-8"?>
<!-- Generator: Adobe Illustrator 16.0.0, SVG Export Plug-In . SVG Version: 6.00 Build 0)  -->
<!DOCTYPE svg PUBLIC "-//W3C//DTD SVG 1.1//EN" "http://www.w3.org/Graphics/SVG/1.1/DTD/svg11.dtd">
<svg version="1.1" id="Layer_1" xmlns="http://www.w3.org/2000/svg" xmlns:xlink="http://www.w3.org/1999/xlink" x="0px" y="0px"
	 width="338.502px" height="89.622px" viewBox="0 0 338.502 89.622" enable-background="new 0 0 338.502 89.622"
	 xml:space="preserve">
<g id="Layer_13" display="none">
	<rect x="0.209" display="inline" width="343.668" height="89.622"/>
</g>
<linearGradient id="SVGID_1_" gradientUnits="userSpaceOnUse" x1="628.72" y1="1452.1948" x2="772.22" y2="1452.1948" gradientTransform="matrix(1 0 0 1 -628.7188 -1406.8594)">
	<stop  offset="0" style="stop-color:#175F91"/>
	<stop  offset="1" style="stop-color:#2484C6"/>
</linearGradient>
<polygon fill="url(#SVGID_1_)" points="82.167,26.789 0,88.579 0,88.579 0,2.093 143.5,2.093 143.5,45.336 "/>
<path d="M29.251,68.311c-16.102,5.109-14,10.75-14,10.75L0,88.579l31.14-39.563l10.088,7.862L76.417,4.396l11.938,18.458
	l6.588-5.922l7.928,7.464l17.602,2.149l8.858,10.223l14.168,8.568c0,0-6.128-0.604-13.485-1.156
	c-5.1-0.383-10.938-10.267-13.013-10.869c-4.946-1.436-11.882,0.887-16.463-1.314c-6.561-3.152-11.117-5.793-19.68-3.237
	c-5.75,2.428-7.486,8.272-7.358,13c0.269,5.02,0.385,6.72,0,9.391c-0.314,2.174-4.381-7.159-6.999-5.814
	c-2.653,1.361-28.425,19.047-32,20.476"/>
<path fill="none" stroke="#FFFFFF" stroke-width="2.6" stroke-linecap="round" stroke-linejoin="round" stroke-miterlimit="10" d="
	M144.3,83.877c1.369,1.033,2.965,1.809,4.726,2.248c7.068,1.772,14.221-2.522,15.991-9.59c1.77-7.061-2.529-14.221-9.593-15.986
	c-7.058-1.768-12.7,2.822-15.986,9.593c-0.213,0.433-2.013,4.894-2.078,5.351c0,0-3.386,10.68-3.79,5.768
	c-0.401-4.918,4.892-23.729,2.965-24.209c-1.922-0.475-10.176,23.246-11.675,23.357c-1.5,0.114,4.938-26.431,3.825-25.894
	c-1.117,0.536-10.222,22.954-11.436,23.552c-1.206,0.592,3.972-29.759,1.836-25.46c-2.136,4.3-11.167,25.767-11.412,21.874
	c-0.257-3.902,4.682-29.029,1.455-23.639c-3.228,5.396-10.007,23.096-11.04,20.386c-1.038-2.702,3.73-24.401,1.95-23.457
	c-1.787,0.938-8.908,19.896-10.868,20.222c-1.958,0.327,4.164-23.374,1.846-21.914c-4.97,3.115-10.924,24.094-10.766,17.648
	c0.137-5.436-0.333-19.916,3.417-24.333"/>
<path fill="#FFFFFF" d="M0,88.579L0,88.579L31.78,51.104l9.868,7.691L77.168,7.456L87.75,25.512l6.444-5.794l7.755,7.302
	l17.218,2.102l8.667,10l15.667,6.212c0,0-0.051,0.541-7.25,0c-4.987-0.375-12.167-1.576-17-5.023c-5.667-3.394-9.083-6.5-19.5-6.083
	c-7.75,0.583-9.75,0.833-13.417,4.083c-3.917,4.25-2.438,2.65-4.308,8.176c-3.192,13.907-11.902,8.497-26.901,13.949
	c-7.734,2.813-19.989,8.635-24.75,12.375C22.343,79.122,1.869,87.756,0,88.579"/>
<g>
	<path fill="#2484C6" d="M179.946,59.145h-9.594v-3.46h23.352v3.463h-9.64v28.074h-4.118V59.145z"/>
	<path fill="#2484C6" d="M213.54,72.435h-12.26v11.371h13.661v3.415h-17.733V55.685h17.034v3.414h-12.962v9.968h12.261
		L213.54,72.435L213.54,72.435z"/>
	<path fill="#2484C6" d="M220.229,56.104c2.061-0.419,5.009-0.654,7.813-0.654c4.354,0,7.161,0.795,9.125,2.572
		c1.594,1.402,2.48,3.557,2.48,5.988c0,4.166-2.62,6.926-5.941,8.052V72.2c2.434,0.844,3.883,3.088,4.632,6.364
		c1.03,4.397,1.779,7.438,2.435,8.655h-4.211c-0.518-0.889-1.217-3.604-2.104-7.531c-0.938-4.354-2.621-5.988-6.316-6.13h-3.837
		v13.661h-4.072L220.229,56.104L220.229,56.104z M224.301,70.469h4.164c4.353,0,7.113-2.385,7.113-5.988
		c0-4.07-2.948-5.85-7.254-5.896c-1.966,0-3.369,0.188-4.023,0.375V70.469L224.301,70.469z"/>
	<path fill="#2484C6" d="M245.402,56.104c2.06-0.419,5.008-0.654,7.813-0.654c4.354,0,7.161,0.795,9.127,2.572
		c1.592,1.402,2.479,3.557,2.479,5.988c0,4.166-2.619,6.926-5.941,8.052V72.2c2.434,0.844,3.885,3.088,4.633,6.364
		c1.029,4.397,1.777,7.438,2.434,8.655h-4.211c-0.518-0.889-1.218-3.604-2.104-7.531c-0.938-4.354-2.622-5.988-6.316-6.13h-3.838
		v13.661h-4.07V56.104H245.402z M249.472,70.469h4.165c4.353,0,7.112-2.385,7.112-5.988c0-4.07-2.946-5.85-7.253-5.896
		c-1.966,0-3.369,0.188-4.024,0.375V70.469L249.472,70.469z"/>
	<path fill="#2484C6" d="M275.906,77.303l-3.274,9.919h-4.213l10.718-31.537h4.912l10.764,31.537h-4.354l-3.369-9.919H275.906z
		 M286.247,74.12l-3.089-9.078c-0.7-2.059-1.167-3.931-1.636-5.756h-0.095c-0.469,1.873-0.983,3.789-1.592,5.709l-3.088,9.125
		H286.247z"/>
	<path fill="#2484C6" d="M303.511,55.685v31.537h-4.071V55.685H303.511z"/>
	<path fill="#2484C6" d="M310.621,87.221V55.685h4.445l10.106,15.955c2.34,3.696,4.164,7.019,5.662,10.249l0.093-0.049
		c-0.375-4.211-0.468-8.049-0.468-12.961V55.685h3.837v31.537h-4.118l-10.014-16.001c-2.198-3.512-4.306-7.113-5.896-10.53
		l-0.142,0.047c0.23,3.978,0.326,7.769,0.326,13.011v13.479h-3.838L310.621,87.221L310.621,87.221z"/>
</g>
<g opacity="0.95">
	<path fill="#FFFFFF" d="M188.059,20.69h-13.094v12.145h14.593v3.648h-18.938V2.799h18.19v3.648h-13.845v10.645h13.094V20.69z"/>
	<path fill="#FFFFFF" d="M195.205,2.799h4.349v30.036h14.392v3.648h-18.738L195.205,2.799L195.205,2.799z"/>
	<path fill="#FFFFFF" d="M224.24,25.889l-3.498,10.595h-4.498L227.686,2.8h5.25l11.494,33.684h-4.649l-3.598-10.595H224.24z
		 M235.285,22.49l-3.301-9.695c-0.749-2.198-1.249-4.198-1.749-6.146h-0.098c-0.5,1.999-1.052,4.048-1.7,6.097l-3.299,9.745
		L235.285,22.49L235.285,22.49z"/>
	<path fill="#FFFFFF" d="M248.78,31.187c1.95,1.198,4.798,2.198,7.798,2.198c4.446,0,7.046-2.349,7.046-5.747
		c0-3.149-1.8-4.949-6.346-6.698c-5.5-1.949-8.896-4.797-8.896-9.545c0-5.248,4.35-9.146,10.896-9.146
		c3.447,0,5.947,0.799,7.448,1.649l-1.201,3.547c-1.1-0.599-3.348-1.599-6.396-1.599c-4.599,0-6.348,2.749-6.348,5.048
		c0,3.148,2.05,4.697,6.696,6.496c5.695,2.2,8.597,4.949,8.597,9.896c0,5.198-3.849,9.695-11.794,9.695
		c-3.25,0-6.799-0.949-8.599-2.148L248.78,31.187z"/>
	<path fill="#FFFFFF" d="M280.415,6.498h-10.246V2.799h24.938v3.699h-10.296v29.986h-4.396L280.415,6.498L280.415,6.498z"/>
	<path fill="#FFFFFF" d="M303.203,2.799v33.685h-4.351V2.799H303.203z"/>
	<path fill="#FFFFFF" d="M334.34,35.384c-1.602,0.8-4.8,1.599-8.896,1.599c-9.498,0-16.643-5.997-16.643-17.042
		c0-10.544,7.146-17.69,17.592-17.69c4.198,0,6.847,0.899,7.996,1.499l-1.049,3.548c-1.649-0.799-3.998-1.399-6.799-1.399
		c-7.896,0-13.144,5.048-13.144,13.894c0,8.245,4.747,13.543,12.942,13.543c2.646,0,5.349-0.549,7.098-1.399L334.34,35.384z"/>
</g>
</svg>
